<svg width="108" height="108" viewBox="0 0 108 108" fill="none" xmlns="http://www.w3.org/2000/svg">
<path d="M72.9488 66.4714C72.9488 74.9491 72.8868 82.6629 72.9832 90.3836C73.0244 93.4664 75.35 95.7307 78.3636 96.0445C81.0125 96.3241 83.5513 94.3598 84.3013 91.4475C84.6384 90.138 84.549 88.7194 85.354 87.5326C86.9365 85.2137 89.1038 84.2111 91.8697 84.8932C94.7732 85.6093 96.2868 87.4986 96.4176 90.5131C96.8097 99.3933 89.5785 107.107 80.0974 107.878C70.7058 108.635 62.1673 102.087 61.2315 92.8457C60.6467 87.103 60.8119 81.2716 60.8807 75.4879C60.9151 72.6915 60.1582 71.8322 57.3235 72.6915C54.6608 73.4963 51.833 73.4281 49.2116 72.4119C47.175 71.6207 46.6108 72.1868 46.6384 74.2261C46.7141 79.4505 46.7072 84.6749 46.659 89.9061C46.5764 99.3114 40.2397 106.596 31.1439 107.83C22.1169 109.058 13.9499 103.54 11.4936 94.5099C10.8882 92.2933 10.5717 90.0016 11.7551 87.8737C13.0417 85.5684 15.1333 84.4635 17.7685 84.7772C20.383 85.091 22.1719 86.5846 22.8599 89.1695C23.0939 90.0425 23.0939 90.9769 23.3485 91.8431C24.2085 94.7691 26.424 96.2286 29.2793 95.9626C32.0589 95.6966 34.3845 94.1007 34.4395 90.9701C34.5703 83.7064 34.4808 76.4427 34.4808 69.145C33.0841 69.0154 33.0291 70.2158 32.5543 70.8296C27.5386 77.3499 19.9564 79.7438 12.0991 77.2203C4.70964 74.84 0.147978 68.4834 0.0447732 60.3944C0.00349121 57.1002 -0.0309104 53.806 0.0447732 50.5117C0.127337 46.6719 2.56985 44.162 6.12699 44.0938C9.61531 44.0324 12.0716 46.5832 12.1817 50.5185C12.2711 53.8128 12.1404 57.107 12.2367 60.4013C12.3468 64.1047 14.5554 66.3213 17.9336 66.294C21.3119 66.2599 23.4998 64.0638 23.5136 60.299C23.5549 50.3003 23.4173 40.3016 23.4654 30.3098C23.5273 17.8763 30.6003 6.90233 41.6088 2.62597C54.1586 -2.26423 65.7106 -0.402273 75.6252 8.8666C81.7831 14.623 84.3976 21.9822 84.4183 30.3235C84.4389 40.3221 84.549 50.3139 84.5765 60.3126C84.5834 62.8429 85.5535 64.6913 87.9066 65.7689C89.8537 66.6623 91.6908 66.4168 93.4453 65.2846C95.0071 64.2752 95.7708 62.8361 95.7915 60.9946C95.8327 57.5844 95.8052 54.1743 95.9359 50.7709C96.0942 46.5423 98.5367 43.9574 102.087 44.0733C105.706 44.1961 107.901 46.7742 107.942 51.0164C107.977 54.0856 107.977 57.1479 107.983 60.2171C108.004 69.0154 102.658 75.8357 94.209 77.7795C85.8631 79.7029 77.9714 75.8494 74.0427 67.9582C73.8982 67.6649 73.6506 67.4262 72.935 66.4714H72.9488ZM70.4099 42.9889C75.7078 42.9138 79.8291 38.8148 79.7052 33.7473C79.5814 28.8571 75.4119 24.9627 70.2792 24.949C65.1327 24.9354 60.7362 29.2799 60.9151 34.2111C61.0939 39.1013 65.3804 43.0639 70.4099 42.9957V42.9889ZM37.5495 42.9752C42.9643 42.9616 46.9136 39.0535 46.8585 33.7677C46.8035 28.7684 42.6959 24.9013 37.4669 24.9354C32.3823 24.9695 28.206 29.089 28.2679 34.0065C28.3367 39.0467 32.4098 42.9889 37.5495 42.9752Z" fill="#FFF1D8"/>
</svg>
